<svg width="400" height="160" viewBox="0 0 400 160" fill="none" xmlns="http://www.w3.org/2000/svg">
<rect width="400" height="160" fill="white"/>
<path d="M284.949 89.672C284.267 89.672 283.669 89.4373 283.157 88.968C282.688 88.456 282.453 87.8587 282.453 87.176V53.512C282.453 52.7867 282.688 52.1893 283.157 51.72C283.669 51.208 284.267 50.952 284.949 50.952C285.675 50.952 286.272 51.208 286.741 51.72C287.211 52.1893 287.445 52.7867 287.445 53.512V87.176C287.445 87.8587 287.189 88.456 286.677 88.968C286.165 89.4373 285.589 89.672 284.949 89.672ZM284.949 101C283.925 101 283.051 100.637 282.325 99.912C281.6 99.1867 281.237 98.312 281.237 97.288C281.237 96.2213 281.6 95.3253 282.325 94.6C283.051 93.8747 283.925 93.512 284.949 93.512C285.973 93.512 286.848 93.896 287.573 94.664C288.299 95.3893 288.661 96.264 288.661 97.288C288.661 98.312 288.299 99.1867 287.573 99.912C286.848 100.637 285.973 101 284.949 101Z" fill="black"/>
<path d="M262.417 101C261.649 101 261.031 100.787 260.561 100.36C260.135 99.8907 259.921 99.272 259.921 98.504V68.488C259.921 67.72 260.135 67.1227 260.561 66.696C261.031 66.2267 261.649 65.992 262.417 65.992C263.143 65.992 263.719 66.2267 264.145 66.696C264.615 67.1227 264.849 67.72 264.849 68.488V98.504C264.849 99.272 264.615 99.8907 264.145 100.36C263.719 100.787 263.143 101 262.417 101ZM262.353 59.336C261.415 59.336 260.604 58.9947 259.921 58.312C259.239 57.6293 258.897 56.7973 258.897 55.816C258.897 54.7493 259.239 53.9173 259.921 53.32C260.647 52.68 261.479 52.36 262.417 52.36C263.313 52.36 264.103 52.68 264.785 53.32C265.511 53.9173 265.873 54.7493 265.873 55.816C265.873 56.7973 265.532 57.6293 264.849 58.312C264.167 58.9947 263.335 59.336 262.353 59.336Z" fill="black"/>
<path d="M225.121 101.32C221.708 101.32 218.657 100.552 215.969 99.016C213.281 97.48 211.169 95.368 209.633 92.68C208.097 89.992 207.329 86.9413 207.329 83.528C207.329 80.072 208.097 77 209.633 74.312C211.169 71.624 213.281 69.512 215.969 67.976C218.657 66.44 221.708 65.672 225.121 65.672C228.534 65.672 231.564 66.44 234.209 67.976C236.897 69.512 239.009 71.624 240.545 74.312C242.081 77 242.87 80.072 242.913 83.528C242.913 86.9413 242.124 89.992 240.545 92.68C239.009 95.368 236.897 97.48 234.209 99.016C231.564 100.552 228.534 101.32 225.121 101.32ZM225.121 96.84C227.596 96.84 229.814 96.264 231.777 95.112C233.74 93.96 235.276 92.3813 236.385 90.376C237.494 88.3707 238.049 86.088 238.049 83.528C238.049 80.968 237.494 78.6853 236.385 76.68C235.276 74.632 233.74 73.032 231.777 71.88C229.814 70.728 227.596 70.152 225.121 70.152C222.646 70.152 220.428 70.728 218.465 71.88C216.502 73.032 214.945 74.632 213.793 76.68C212.684 78.6853 212.129 80.968 212.129 83.528C212.129 86.088 212.684 88.3707 213.793 90.376C214.945 92.3813 216.502 93.96 218.465 95.112C220.428 96.264 222.646 96.84 225.121 96.84Z" fill="black"/>
<path d="M161.969 86.728C161.201 86.728 160.582 86.4933 160.113 86.024C159.686 85.5547 159.473 84.9573 159.473 84.232V53.512C159.473 52.744 159.686 52.1467 160.113 51.72C160.582 51.2507 161.201 51.016 161.969 51.016C162.694 51.016 163.27 51.2507 163.697 51.72C164.166 52.1467 164.401 52.744 164.401 53.512V84.232C164.401 84.9573 164.166 85.5547 163.697 86.024C163.27 86.4933 162.694 86.728 161.969 86.728ZM189.489 101C188.763 101 188.166 100.765 187.697 100.296C187.227 99.8267 186.993 99.2507 186.993 98.568V81.928C186.993 79.2827 186.481 77.1067 185.457 75.4C184.475 73.6933 183.11 72.4133 181.361 71.56C179.654 70.7067 177.713 70.28 175.537 70.28C173.446 70.28 171.547 70.6853 169.841 71.496C168.177 72.3067 166.854 73.416 165.873 74.824C164.891 76.232 164.401 77.832 164.401 79.624H160.881C160.966 76.936 161.691 74.5467 163.057 72.456C164.422 70.3227 166.235 68.6587 168.497 67.464C170.758 66.2267 173.275 65.608 176.049 65.608C179.078 65.608 181.787 66.248 184.177 67.528C186.566 68.7653 188.443 70.6 189.809 73.032C191.217 75.464 191.921 78.4293 191.921 81.928V98.568C191.921 99.2507 191.686 99.8267 191.217 100.296C190.747 100.765 190.171 101 189.489 101ZM161.969 101C161.201 101 160.582 100.787 160.113 100.36C159.686 99.8907 159.473 99.2933 159.473 98.568V68.488C159.473 67.72 159.686 67.1227 160.113 66.696C160.582 66.2267 161.201 65.992 161.969 65.992C162.694 65.992 163.27 66.2267 163.697 66.696C164.166 67.1227 164.401 67.72 164.401 68.488V98.568C164.401 99.2933 164.166 99.8907 163.697 100.36C163.27 100.787 162.694 101 161.969 101Z" fill="black"/>
<path d="M125.184 101.32C121.899 101.32 118.955 100.552 116.352 99.016C113.749 97.4373 111.68 95.304 110.144 92.616C108.651 89.928 107.904 86.8987 107.904 83.528C107.904 80.1147 108.672 77.064 110.208 74.376C111.787 71.688 113.92 69.576 116.608 68.04C119.296 66.4613 122.325 65.672 125.696 65.672C129.067 65.672 132.075 66.4613 134.72 68.04C137.408 69.576 139.52 71.688 141.056 74.376C142.635 77.064 143.445 80.1147 143.488 83.528L141.504 85.064C141.504 88.136 140.779 90.9093 139.328 93.384C137.92 95.816 135.979 97.7573 133.504 99.208C131.072 100.616 128.299 101.32 125.184 101.32ZM125.696 96.84C128.171 96.84 130.368 96.264 132.288 95.112C134.251 93.96 135.787 92.3813 136.896 90.376C138.048 88.328 138.624 86.0453 138.624 83.528C138.624 80.968 138.048 78.6853 136.896 76.68C135.787 74.6747 134.251 73.096 132.288 71.944C130.368 70.7493 128.171 70.152 125.696 70.152C123.264 70.152 121.067 70.7493 119.104 71.944C117.141 73.096 115.584 74.6747 114.432 76.68C113.28 78.6853 112.704 80.968 112.704 83.528C112.704 86.0453 113.28 88.328 114.432 90.376C115.584 92.3813 117.141 93.96 119.104 95.112C121.067 96.264 123.264 96.84 125.696 96.84ZM140.992 101C140.267 101 139.669 100.787 139.2 100.36C138.731 99.8907 138.496 99.2933 138.496 98.568V87.624L139.712 82.568L143.488 83.528V98.568C143.488 99.2933 143.253 99.8907 142.784 100.36C142.315 100.787 141.717 101 140.992 101Z" fill="black"/>
</svg>


